<svg xmlns="http://www.w3.org/2000/svg" xmlns:xlink="http://www.w3.org/1999/xlink" version="1.1" x="0px" y="0px" viewBox="0 0 91 113.75" enable-background="new 0 0 91 91" xml:space="preserve"><g><path d="M88.09,14.521c0-6.26-5.092-11.352-11.352-11.352c-6.26,0-11.354,5.092-11.354,11.352c0,6.259,5.094,11.353,11.354,11.353   C82.999,25.874,88.09,20.78,88.09,14.521z M69.951,14.521c0-3.742,3.045-6.786,6.788-6.786c3.741,0,6.785,3.044,6.785,6.786   s-3.044,6.786-6.785,6.786C72.996,21.307,69.951,18.263,69.951,14.521z"/><path d="M58.339,51.158c1.05,0.696,2.467,0.411,3.165-0.64l11.648-17.552c0.83-1.252,2.099-2.106,3.574-2.405   c1.47-0.301,2.972-0.006,4.217,0.821l0.485,0.324c1.253,0.829,2.107,2.097,2.405,3.569c0.298,1.473,0.005,2.975-0.847,4.256   L64.524,68.254c-0.681,1.061-0.375,2.474,0.687,3.155c0.382,0.246,0.809,0.363,1.232,0.363c0.75,0,1.486-0.37,1.923-1.049   L86.81,42.029c1.507-2.27,2.04-4.99,1.499-7.66c-0.541-2.669-2.089-4.966-4.353-6.465l-0.482-0.322   c-2.267-1.506-4.986-2.037-7.654-1.497c-2.67,0.541-4.97,2.089-6.473,4.358l-11.647,17.55   C57.002,49.044,57.289,50.461,58.339,51.158z"/><path d="M38.891,0.728c-11.934,0-21.642,9.708-21.642,21.642c0,11.933,9.708,21.641,21.642,21.641   c11.934,0,21.643-9.708,21.643-21.641C60.534,10.436,50.825,0.728,38.891,0.728z M38.891,39.444   c-9.415,0-17.075-7.66-17.075-17.075s7.66-17.075,17.075-17.075c9.416,0,17.077,7.66,17.077,17.075S48.307,39.444,38.891,39.444z"/><path d="M59.232,89.215c0.326,0.945,1.212,1.539,2.159,1.539c0.247,0,0.499-0.04,0.745-0.125c1.191-0.412,1.824-1.711,1.413-2.903   L51.399,52.53c0.192-0.113,0.437-0.247,0.744-0.4c1.128-0.564,1.585-1.936,1.021-3.063c-0.563-1.128-1.936-1.585-3.063-1.021   c-1.664,0.832-3.39,1.914-3.583,3.633c-0.06,0.533,0.04,1.054,0.274,1.503L59.232,89.215z"/><path d="M4.48,88.665c1.885,1.546,3.799,2.114,5.558,2.114c2.863,0,5.318-1.502,6.575-2.736c0.08-0.077,0.153-0.161,0.22-0.249   l12.725-16.75h14.225c1.261,0,2.283-1.022,2.283-2.284c0-1.261-1.022-2.283-2.283-2.283H28.426c-0.713,0-1.386,0.334-1.818,0.902   L13.312,84.881c-0.601,0.542-3.153,2.538-5.936,0.254c-1.621-1.33-0.304-3.398-0.052-3.761   c0.139-0.186,13.854-18.616,17.659-22.421c3.021-3.022,6.727-2.442,6.864-2.422c0.137,0.026,0.278,0.039,0.417,0.039h6.111   c1.262,0,2.284-1.022,2.284-2.284c0-1.261-1.022-2.283-2.284-2.283h-5.944c-1.206-0.159-6.405-0.551-10.677,3.721   C17.716,59.763,4.232,77.88,3.643,78.673C2.182,80.693,0.477,85.38,4.48,88.665z"/></g></svg>
