<svg xmlns="http://www.w3.org/2000/svg" xmlns:xlink="http://www.w3.org/1999/xlink" version="1.1" x="0px" y="0px" viewBox="0 0 90 112.5" enable-background="new 0 0 90 90" xml:space="preserve"><polygon points="62.635,18.956 61.762,13.14 57.646,13.14 56.772,18.956 16.261,18.956 15.39,13.14 11.271,13.14 10.4,18.956   2.101,18.956 2.101,25.22 70.935,25.22 70.935,18.956 "/><path d="M41.904,65.378l15.568-24.854c2.041-3.259,5.559-5.203,9.401-5.203c0.391,0,0.771,0.033,1.157,0.073v-7.434H5.007v42.354  h35.268C40.427,68.592,40.955,66.896,41.904,65.378z"/><path d="M66.874,46.966l14.882,23.751h-29.76L66.874,46.966 M66.874,40.821c-2.112,0-4.081,1.089-5.208,2.882L46.788,67.454  c-1.183,1.894-1.248,4.284-0.167,6.24c1.081,1.954,3.142,3.166,5.375,3.166h29.76c2.234,0,4.295-1.212,5.376-3.166  c1.081-1.956,1.015-4.347-0.173-6.24L72.082,43.703C70.96,41.91,68.995,40.821,66.874,40.821L66.874,40.821z"/><path d="M68.244,55.4v8.214h-2.736V55.4H68.244z M65.508,65.306h2.736v2.74h-2.736V65.306z"/></svg>
