<svg xmlns="http://www.w3.org/2000/svg" version="1.1" viewBox="-5.0 -10.0 110.0 135.0">
 <path d="m56.25 25c0 1.3789-1.1211 2.5-2.5 2.5h-8.75v5h10.41c0.98438 0 1.9297 0.38672 2.6328 1.0781l6.0781 5.9805h6.0977c2.0703 0 3.75 1.6797 3.75 3.75v4.4844h3.8164v-3.6328c0-2.8438 3.0391-4.6523 5.5391-3.2969l7.2148 3.9141c1.207 0.65625 1.9609 1.9219 1.9609 3.2969v20.91c0 1.375-0.75391 2.6406-1.9609 3.2969l-7.2148 3.9141c-2.5 1.3555-5.5391-0.45312-5.5391-3.2969v-3.6328h-3.8164v4.4844c0 2.0703-1.6797 3.75-3.75 3.75h-29.328c-0.98047 0-1.9258-0.38672-2.6289-1.0781l-7.2734-7.1562h-8.4883c-2.0703 0-3.75-1.6797-3.75-3.75v-9.2656h-6.25v7.5c0 1.3789-1.1211 2.5-2.5 2.5s-2.5-1.1211-2.5-2.5v-21.25c0-1.3789 1.1211-2.5 2.5-2.5s2.5 1.1211 2.5 2.5v8.75h6.25v-7.9414c0-2.0703 1.6797-3.75 3.75-3.75h1.3125l6.082-5.9805c0.69922-0.69141 1.6445-1.0781 2.6289-1.0781h7.4766v-5h-7.5c-1.3789 0-2.5-1.1211-2.5-2.5s1.1211-2.5 2.5-2.5h21.25c1.3789 0 2.5 1.1211 2.5 2.5zm-29.293 18.48 6.0781-5.9805h21.863l6.082 5.9805c0.69922 0.69141 1.6445 1.0781 2.6289 1.0781h5.3594v4.4844c0 2.0703 1.6758 3.75 3.75 3.75h6.3164c2.0703 0 3.75-1.6758 3.75-3.75v-2.7812l4.7148 2.5586v19.418l-4.7148 2.5586v-2.7812c0-2.0703-1.6797-3.75-3.75-3.75h-6.3164c-2.0742 0-3.75 1.6797-3.75 3.75v4.4844h-27.566l-7.2734-7.1602c-0.69922-0.6875-1.6445-1.0742-2.6289-1.0742h-7.75v-19.707h0.57422c0.98438 0 1.9297-0.38672 2.6328-1.0781zm23.539 2.3086c0.4375-1.3086-0.26953-2.7227-1.582-3.1602-1.3086-0.4375-2.7227 0.26953-3.1602 1.582l-2.5781 7.7266c-0.80859 2.4297 1 4.9375 3.5586 4.9375h2.9219l-2.0273 6.0859c-0.4375 1.3086 0.26953 2.7227 1.582 3.1602 1.3086 0.4375 2.7227-0.26953 3.1602-1.582l2.5781-7.7266c0.80859-2.4297-1-4.9375-3.5586-4.9375h-2.9219z" fill-rule="evenodd"/>
</svg>
