<svg xmlns="http://www.w3.org/2000/svg" viewBox="0 0 32 40" x="0px" y="0px">
    <title>dashboard warning car 32 X 32 TO NOUNT PRO</title>
    <g data-name="Layer 25">
        <path d="M29.58,17.19,24,13.25V8a3,3,0,0,0-3-3H11A3,3,0,0,0,8,8v5.25L2.42,17.19A1,1,0,0,0,3,19a1,1,0,0,0,.58-.18L8,15.7V24a3,3,0,0,0,3,3H21a3,3,0,0,0,3-3V15.7l4.42,3.12A1,1,0,0,0,29,19a1,1,0,0,0,.58-1.81ZM10,15.06l2,.67v5.89l-2,.67ZM21,25H11a1,1,0,0,1-.93-.63L14.22,23h3.89l3.82,1.37A1,1,0,0,1,21,25Zm1-2.75-2-.71V15.81l2-.71ZM22,13l-2.88,1h-6L10,13V12H22Z"/>
    </g>
</svg>
