<svg xmlns="http://www.w3.org/2000/svg" xmlns:xlink="http://www.w3.org/1999/xlink" version="1.0" x="0px" y="0px"
     viewBox="0 0 100 125" enable-background="new 0 0 100 100" xml:space="preserve"><path d="M78.2168579,27.2781982l-7.7731323-13.842041H29.1199951l-7.1993408,13.842041h-8.109375v6.4981689h4.8167725v18.3460693  v4.1445923v7.2911987h12.7003174v-7.2911987h37.7415161v7.2911987h12.7063599v-7.2911987v-4.1445923V33.7763672h5.1008301  v-6.4981689H78.2168579z M32.986145,18.9658203h34.1419678l6.6312866,11.3265991H27.595459L32.986145,18.9658203z   M27.595459,47.1488647c-2.9735107,0-5.3848267-2.411438-5.3848267-5.3850098c0-2.9736938,2.4113159-5.3908081,5.3848267-5.3908081  c2.9738159,0,5.390686,2.4171143,5.390686,5.3908081C32.986145,44.7374268,30.5692749,47.1488647,27.595459,47.1488647z   M71.1335449,47.1488647c-2.9735107,0-5.3908081-2.411438-5.3908081-5.3850098c0-2.9736938,2.4172974-5.3908081,5.3908081-5.3908081  c2.9794312,0,5.3907471,2.4171143,5.3907471,5.3908081C76.524292,44.7374268,74.1129761,47.1488647,71.1335449,47.1488647z"/>
    <path d="M75.03302,74.9589233c-0.7583618-2.6729126,7.3600464-6.3403931,7.3600464-6.3403931H67.7531128  c-12.0474243,7.6259155,2.3505249,10.18396,8.3455811,14.6320801c5.9951782,4.4480591-6.9430542,8.7791748-6.9430542,8.7791748  c14.2431641-2.94104,15.0252686-7.5062256,13.7052002-10.6520996C81.883728,79.0492554,75.7913818,77.631897,75.03302,74.9589233z"/>
    <path d="M25.2369995,74.9589233c-0.7583008-2.6729126,7.3601074-6.3403931,7.3601074-6.3403931H17.9570923  c-12.0473633,7.6259155,2.3505249,10.18396,8.3456421,14.6320801c5.9951782,4.4480591-6.9430542,8.7791748-6.9430542,8.7791748  c14.2431641-2.94104,15.0252686-7.5062256,13.7051392-10.6520996C32.0877686,79.0492554,25.9954224,77.631897,25.2369995,74.9589233  z"/>
</svg>
