<svg xmlns:dc="http://purl.org/dc/elements/1.1/" xmlns:cc="http://creativecommons.org/ns#"
     xmlns:rdf="http://www.w3.org/1999/02/22-rdf-syntax-ns#" xmlns:svg="http://www.w3.org/2000/svg"
     xmlns="http://www.w3.org/2000/svg" xmlns:sodipodi="http://sodipodi.sourceforge.net/DTD/sodipodi-0.dtd"
     xmlns:inkscape="http://www.inkscape.org/namespaces/inkscape" viewBox="0 0 8.4666665 10.583333625" version="1.1"
     x="0px" y="0px">
    <g transform="translate(0,-288.53332)">
        <path d="m 4.1010427,290.12082 c -1.5327492,0 -2.7781251,1.24539 -2.7781251,2.77812 0,1.53276 1.2453759,2.77813 2.7781251,2.77813 1.5327493,0 2.7781252,-1.24537 2.7781252,-2.77813 0,-1.53273 -1.2453758,-2.77812 -2.7781252,-2.77812 z m 0,0.26458 c 1.3897576,0 2.5135417,1.12379 2.5135417,2.51354 0,1.38978 -1.1237841,2.51355 -2.5135417,2.51355 -1.3897576,0 -2.5135417,-1.12377 -2.5135417,-2.51355 0,-1.38975 1.1237841,-2.51354 2.5135417,-2.51354 z"
              style="color:#000000;font-style:normal;font-variant:normal;font-weight:normal;font-stretch:normal;font-size:medium;line-height:normal;font-family:sans-serif;text-indent:0;text-align:start;text-decoration:none;text-decoration-line:none;text-decoration-style:solid;text-decoration-color:#000000;letter-spacing:normal;word-spacing:normal;text-transform:none;direction:ltr;writing-mode:lr-tb;baseline-shift:baseline;text-anchor:start;white-space:normal;clip-rule:nonzero;display:inline;overflow:visible;visibility:visible;opacity:1;isolation:auto;mix-blend-mode:normal;color-interpolation:sRGB;color-interpolation-filters:linearRGB;solid-color:#000000;solid-opacity:1;fill:#000000;fill-opacity:1;fill-rule:nonzero;stroke:none;stroke-width:1;stroke-linecap:round;stroke-linejoin:round;stroke-miterlimit:4;stroke-dasharray:none;stroke-dashoffset:0;stroke-opacity:1;color-rendering:auto;image-rendering:auto;shape-rendering:auto;text-rendering:auto;enable-background:accumulate"/>
        <path d="m 1.945102,290.25364 a 0.13230489,0.1323049 0 0 0 -0.080615,0.0325 c -0.7626893,0.6531 -1.20208461,1.60732 -1.20302738,2.61173 -9.4191e-4,1.00441 0.43693508,1.95927 1.19837658,2.61379 a 0.13230489,0.1323049 0 1 0 0.1720825,-0.2005 c -0.7029965,-0.60428 -1.10674665,-1.48537 -1.10587575,-2.41276 8.705e-4,-0.92742 0.40637835,-1.80827 1.11052655,-2.41123 a 0.13230489,0.1323049 0 0 0 -0.091467,-0.23357 z"
              style="color:#000000;font-style:normal;font-variant:normal;font-weight:normal;font-stretch:normal;font-size:medium;line-height:normal;font-family:sans-serif;text-indent:0;text-align:start;text-decoration:none;text-decoration-line:none;text-decoration-style:solid;text-decoration-color:#000000;letter-spacing:normal;word-spacing:normal;text-transform:none;direction:ltr;writing-mode:lr-tb;baseline-shift:baseline;text-anchor:start;white-space:normal;clip-rule:nonzero;display:inline;overflow:visible;visibility:visible;opacity:1;isolation:auto;mix-blend-mode:normal;color-interpolation:sRGB;color-interpolation-filters:linearRGB;solid-color:#000000;solid-opacity:1;fill:#000000;fill-opacity:1;fill-rule:nonzero;stroke:none;stroke-width:0.99999994;stroke-linecap:round;stroke-linejoin:round;stroke-miterlimit:4;stroke-dasharray:none;stroke-dashoffset:0;stroke-opacity:1;color-rendering:auto;image-rendering:auto;shape-rendering:auto;text-rendering:auto;enable-background:accumulate"/>
        <path d="m 6.2569838,290.25158 a 0.13230489,0.1323049 0 0 1 0.080615,0.0325 c 0.7626892,0.6531 1.2020846,1.60732 1.2030274,2.61173 9.525e-4,1.00441 -0.436935,1.95926 -1.1983765,2.61379 A 0.13230489,0.1323049 0 1 1 6.170167,295.3091 c 0.7029966,-0.60428 1.1067468,-1.48537 1.1058758,-2.41276 -8.731e-4,-0.92742 -0.4063783,-1.80827 -1.1105267,-2.41123 a 0.13230489,0.1323049 0 0 1 0.091468,-0.23357 z"
              style="color:#000000;font-style:normal;font-variant:normal;font-weight:normal;font-stretch:normal;font-size:medium;line-height:normal;font-family:sans-serif;text-indent:0;text-align:start;text-decoration:none;text-decoration-line:none;text-decoration-style:solid;text-decoration-color:#000000;letter-spacing:normal;word-spacing:normal;text-transform:none;direction:ltr;writing-mode:lr-tb;baseline-shift:baseline;text-anchor:start;white-space:normal;clip-rule:nonzero;display:inline;overflow:visible;visibility:visible;opacity:1;isolation:auto;mix-blend-mode:normal;color-interpolation:sRGB;color-interpolation-filters:linearRGB;solid-color:#000000;solid-opacity:1;fill:#000000;fill-opacity:1;fill-rule:nonzero;stroke:none;stroke-width:0.99999994;stroke-linecap:round;stroke-linejoin:round;stroke-miterlimit:4;stroke-dasharray:none;stroke-dashoffset:0;stroke-opacity:1;color-rendering:auto;image-rendering:auto;shape-rendering:auto;text-rendering:auto;enable-background:accumulate"/>
        <path d="m 4.1010427,290.91457 c -0.2175804,0 -0.3968749,0.17931 -0.3968749,0.39687 l 0,2.11667 c 0,0.21759 0.1792945,0.39688 0.3968749,0.39688 0.2175804,0 0.396875,-0.17929 0.396875,-0.39688 l 0,-2.11667 c 0,-0.21756 -0.1792946,-0.39687 -0.396875,-0.39687 z m 0,0.26458 c 0.075578,0 0.1322917,0.0567 0.1322917,0.13229 l 0,2.11667 c 0,0.0756 -0.056714,0.13229 -0.1322917,0.13229 -0.075578,0 -0.1322916,-0.0567 -0.1322916,-0.13229 l 0,-2.11667 c 0,-0.0756 0.056714,-0.13229 0.1322916,-0.13229 z"
              style="color:#000000;font-style:normal;font-variant:normal;font-weight:normal;font-stretch:normal;font-size:medium;line-height:normal;font-family:sans-serif;text-indent:0;text-align:start;text-decoration:none;text-decoration-line:none;text-decoration-style:solid;text-decoration-color:#000000;letter-spacing:normal;word-spacing:normal;text-transform:none;direction:ltr;writing-mode:lr-tb;baseline-shift:baseline;text-anchor:start;white-space:normal;clip-rule:nonzero;display:inline;overflow:visible;visibility:visible;opacity:1;isolation:auto;mix-blend-mode:normal;color-interpolation:sRGB;color-interpolation-filters:linearRGB;solid-color:#000000;solid-opacity:1;fill:#000000;fill-opacity:1;fill-rule:nonzero;stroke:none;stroke-width:1;stroke-linecap:round;stroke-linejoin:round;stroke-miterlimit:4;stroke-dasharray:none;stroke-dashoffset:0;stroke-opacity:1;color-rendering:auto;image-rendering:auto;shape-rendering:auto;text-rendering:auto;enable-background:accumulate"/>
        <path d="m 4.1010427,294.08957 c -0.217621,0 -0.3968749,0.17925 -0.3968749,0.39687 0,0.21762 0.1792539,0.39688 0.3968749,0.39688 0.2176211,0 0.396875,-0.17926 0.396875,-0.39688 0,-0.21762 -0.1792539,-0.39687 -0.396875,-0.39687 z m 0,0.26458 c 0.07463,0 0.1322917,0.0577 0.1322917,0.13229 0,0.0746 -0.057662,0.1323 -0.1322917,0.1323 -0.07463,0 -0.1322916,-0.0577 -0.1322916,-0.1323 0,-0.0746 0.057662,-0.13229 0.1322916,-0.13229 z"
              style="color:#000000;font-style:normal;font-variant:normal;font-weight:normal;font-stretch:normal;font-size:medium;line-height:normal;font-family:sans-serif;text-indent:0;text-align:start;text-decoration:none;text-decoration-line:none;text-decoration-style:solid;text-decoration-color:#000000;letter-spacing:normal;word-spacing:normal;text-transform:none;direction:ltr;writing-mode:lr-tb;baseline-shift:baseline;text-anchor:start;white-space:normal;clip-rule:nonzero;display:inline;overflow:visible;visibility:visible;opacity:1;isolation:auto;mix-blend-mode:normal;color-interpolation:sRGB;color-interpolation-filters:linearRGB;solid-color:#000000;solid-opacity:1;fill:#000000;fill-opacity:1;fill-rule:nonzero;stroke:none;stroke-width:1;stroke-linecap:round;stroke-linejoin:round;stroke-miterlimit:4;stroke-dasharray:none;stroke-dashoffset:0;stroke-opacity:1;color-rendering:auto;image-rendering:auto;shape-rendering:auto;text-rendering:auto;enable-background:accumulate"/>
    </g>
</svg>
