<svg xmlns="http://www.w3.org/2000/svg" viewBox="0 0 32 40" fill="none" x="0px" y="0px">
    <path d="M29 15.9999C28.0767 21.5396 23.2837 25.5999 17.6675 25.5999H16.7043C15.5421 25.5999 14.6 24.6578 14.6 23.4956V8.50421C14.6 7.34204 15.5421 6.3999 16.7043 6.3999H17.6675C23.2837 6.3999 28.0767 10.4601 29 15.9999Z"
          fill="black"/>
    <path d="M12.6 14.7999L3.36739 14.4306C2.93868 14.4135 2.59998 14.0609 2.59998 13.6319C2.59998 13.1779 2.97764 12.815 3.43129 12.8331L12.6 13.1999V14.7999Z"
          fill="black"/>
    <path d="M12.6 17.1999L3.36739 17.5692C2.93868 17.5864 2.59998 17.9389 2.59998 18.3679C2.59998 18.822 2.97764 19.1848 3.43129 19.1666L12.6 18.7999V17.1999Z"
          fill="black"/>
    <path d="M13 8.79993L3.61627 7.70258C3.18863 7.65259 2.79774 7.94897 2.73051 8.37427C2.65929 8.82471 2.97732 9.24384 3.43029 9.29657L12.8327 10.3911L13 8.79993Z"
          fill="black"/>
    <path d="M13 23.1999L3.6163 24.2972C3.18866 24.3472 2.79777 24.0508 2.73054 23.6255C2.65932 23.1751 2.97735 22.7559 3.43032 22.7032L12.8327 21.6086L13 23.1999Z"
          fill="black"/>
</svg>
