<svg xmlns="http://www.w3.org/2000/svg" xmlns:xlink="http://www.w3.org/1999/xlink" version="1.1" x="0px" y="0px"
     viewBox="0 0 80 100" enable-background="new 0 0 80 80" xml:space="preserve"><path fill="#000000" d="M61.629,34.933c0.392-0.323,0.735-0.684,0.923-0.964c0.25-0.375-1.063-2.124-2.188-2.874  s-3.541-1.208-4.625-1.876c-0.465-0.287-1.475,0.662,0,2.031c0.875,0.813,2.383,2.565,3.813,4.281  c0.014,0.017,0.037,0.019,0.052,0.033c1.617,2.061,2.291,3.552,1.547,7.762l-0.046,0.258c-0.832,4.708-1.056,5.973-0.458,9.899  c0.685,4.498,0.216,6.206-0.299,6.847c-0.214,0.267-0.479,0.396-0.862,0.422c-0.557,0.044-0.978-0.117-1.304-0.49  c-0.642-0.732-1.513-2.965-0.149-9.688c0.965-4.764,0.423-10.816-2.482-13.167c-0.58-0.469-1.412-0.903-2.498-0.971V10  c0-1.381-1.119-2.5-2.5-2.5h-30c-1.381,0-2.5,1.119-2.5,2.5v59.5h-1.5v3h4h30h4v-3h-1.5V38.441c0.456,0.051,0.869,0.22,1.24,0.52  c1.953,1.58,2.734,6.506,1.779,11.216c-1.186,5.852-0.988,9.582,0.605,11.401c0.678,0.775,1.59,1.18,2.652,1.18  c0.096,0,0.191-0.004,0.289-0.01c0.936-0.063,1.727-0.466,2.289-1.166c1.145-1.426,1.372-4.095,0.717-8.399  c-0.549-3.602-0.356-4.687,0.45-9.251l0.046-0.258C63.888,39.33,63.276,37.217,61.629,34.933z M49.552,34.5  c0,0.828-0.672,1.5-1.5,1.5h-25c-0.829,0-1.5-0.672-1.5-1.5v-22c0-0.828,0.671-1.5,1.5-1.5h25c0.828,0,1.5,0.672,1.5,1.5V34.5z"/>
</svg>
