<svg xmlns="http://www.w3.org/2000/svg" xmlns:xlink="http://www.w3.org/1999/xlink" version="1.1" x="0px" y="0px"
     viewBox="0 0 100 125" enable-background="new 0 0 100 100" xml:space="preserve"><path d="M89.367,43.109c0,0-7.592,1.154-7.592,1.153L60.971,66.169H21.543V53.012L2.119,46.11l5.648-12.279l17.485,6.022v3.562  h-0.002c2.669,0.006,6.468,0.014,10.333,0.022v-4.322H29.39v-3.708h16.368v3.708h-6.195v4.33c6.17,0.013,11.55,0.024,11.55,0.024  l3.346,4.703c0,0,25.953-6.691,25.953-6.692l9.314-1.628l4.523,4.25l-1.809,2.351L89.367,43.109z M93.27,49.766  c0,0-4.609,7.744-4.609,10.628c0,2.885,1.684,3.848,4.609,3.848s4.611-0.963,4.611-3.848C97.881,57.51,93.27,49.766,93.27,49.766z"/>
</svg>
