<svg xmlns="http://www.w3.org/2000/svg" xmlns:xlink="http://www.w3.org/1999/xlink" version="1.1" x="0px" y="0px"
     viewBox="0 0 80 100" enable-background="new 0 0 80 80" xml:space="preserve"><g><path fill="#000000" d="M32.5,15c-13.784,0-25,11.216-25,25c0,13.786,11.216,25,25,25c13.786,0,25-11.214,25-25   C57.5,26.216,46.286,15,32.5,15z M32.5,61.297c-6.696,0-12.677-3.108-16.584-7.956l12.91-7.456   c1.068,0.669,2.323,1.061,3.674,1.061c1.475,0,2.839-0.465,3.964-1.248l12.811,7.398C45.373,58.083,39.31,61.297,32.5,61.297z    M52.449,47.446l-13.008-7.511c-0.034-3.805-3.129-6.881-6.941-6.881c-3.836,0-6.945,3.11-6.945,6.945   c0,0.096,0.012,0.188,0.016,0.282l-12.906,7.453c-0.939-2.399-1.461-5.008-1.461-7.735c0-11.743,9.555-21.297,21.297-21.297   c11.743,0,21.297,9.554,21.297,21.297C53.797,42.617,53.32,45.126,52.449,47.446z"/><circle
        fill="#000000" cx="69" cy="59" r="3.5"/><path fill="#000000"
                                                      d="M69,17.5c-1.933,0-3.5,1.567-3.5,3.5v28c0,1.933,1.567,3.5,3.5,3.5s3.5-1.567,3.5-3.5V21   C72.5,19.067,70.933,17.5,69,17.5z"/></g>
</svg>
