<svg xmlns="http://www.w3.org/2000/svg" xmlns:xlink="http://www.w3.org/1999/xlink" viewBox="0 0 54 72.5" version="1.1"
     x="0px" y="0px">
    <title>1 -Seat Belt Warning- (car, part, vehicle)</title>
    <desc>Created with Sketch.</desc>
    <g stroke="none" stroke-width="1" fill="none" fill-rule="evenodd">
        <g transform="translate(-123.000000, -404.000000)" fill="#000000">
            <g transform="translate(123.000000, 404.000000)">
                <path d="M39.2197,42.353 C39.8127,42.485 40.4047,42.623 40.9947,42.771 C40.9117,47.971 39.9937,52.617 38.3817,56 L35.5247,56 C36.5047,53.387 37.0007,50.033 37.0007,46 C37.0007,45.534 36.6787,45.13 36.2247,45.025 C30.3917,43.683 23.6687,43.684 17.7787,45.025 C17.3237,45.128 17.0007,45.533 17.0007,46 C17.0007,50.033 17.4957,53.387 18.4757,56 L15.6197,56 C14.0067,52.615 13.0887,47.968 13.0067,42.769 C13.3767,42.673 13.7477,42.582 14.1187,42.495 C15.1487,42.267 16.1627,42.07 17.1687,41.896 C17.3447,41.865 17.5187,41.84 17.6937,41.811 C18.5237,41.673 19.3467,41.554 20.1657,41.453 C20.3907,41.425 20.6157,41.399 20.8397,41.374 C21.6417,41.284 22.4387,41.212 23.2327,41.157 C23.4237,41.144 23.6147,41.128 23.8047,41.117 C27.8547,40.878 31.8447,41.088 35.9957,41.754 C36.0097,41.756 36.0247,41.758 36.0397,41.761 C37.0877,41.93 38.1467,42.127 39.2197,42.353 M22.1427,21.184 C23.9057,20.292 25.0007,18.559 25.0007,16.659 L25.0007,15.737 C25.6407,15.902 26.3087,16 27.0007,16 C27.6917,16 28.3597,15.902 29.0007,15.737 L29.0007,16.659 C29.0007,17.515 29.2287,18.357 29.6537,19.104 L13.2487,35.509 C14.1437,29.017 17.5037,23.526 22.1427,21.184 M40.8677,36.51 C36.7287,35.649 32.4727,35.182 28.2427,35.071 C28.1157,35.067 27.9887,35.064 27.8617,35.061 C27.3707,35.051 26.8787,35.023 26.3887,35.023 C24.9477,35.023 23.5107,35.068 22.0857,35.157 L34.3767,22.867 C37.9607,25.893 40.3247,30.866 40.8677,36.51 M53.3817,40.361 C50.0187,38.973 46.5017,37.855 42.9077,37.003 C42.4517,30.634 39.8457,24.944 35.7937,21.449 L44.0627,13.18 C44.4537,12.79 44.4537,12.157 44.0627,11.766 L41.2347,8.937 C40.8597,8.562 40.1957,8.562 39.8207,8.937 L31.1617,17.596 C31.0587,17.296 31.0007,16.982 31.0007,16.659 L31.0007,14.92 C31.0137,14.912 31.0247,14.902 31.0377,14.895 C31.3147,14.732 31.5797,14.553 31.8347,14.359 C31.8557,14.343 31.8777,14.328 31.8987,14.311 C32.4397,13.891 32.9227,13.403 33.3407,12.86 C33.3417,12.858 33.3437,12.856 33.3447,12.854 C33.9597,12.052 34.4257,11.133 34.7027,10.133 C34.7147,10.09 34.7247,10.047 34.7357,10.004 C34.8047,9.738 34.8607,9.467 34.9017,9.191 C34.9127,9.12 34.9257,9.05 34.9347,8.978 C34.9737,8.657 35.0007,8.332 35.0007,8 C35.0007,3.589 31.4117,0 27.0007,0 C22.5897,0 19.0007,3.589 19.0007,8 C19.0007,8.332 19.0267,8.657 19.0667,8.978 C19.0757,9.05 19.0887,9.12 19.0987,9.191 C19.1407,9.467 19.1957,9.738 19.2647,10.004 C19.2757,10.047 19.2857,10.09 19.2977,10.133 C19.5757,11.133 20.0407,12.052 20.6567,12.854 C20.6577,12.856 20.6587,12.858 20.6607,12.86 C21.0777,13.403 21.5617,13.891 22.1027,14.311 C22.1237,14.328 22.1447,14.343 22.1667,14.359 C22.4207,14.553 22.6857,14.732 22.9627,14.895 C22.9757,14.902 22.9877,14.912 23.0007,14.92 L23.0007,16.659 C23.0007,17.8 22.3257,18.85 21.2407,19.398 C15.6487,22.222 11.7287,29.004 11.1077,36.803 C7.3787,37.69 3.8367,38.878 0.5817,40.377 C0.2547,40.528 0.0337,40.844 0.0037,41.204 C-0.0263,41.563 0.1407,41.911 0.4387,42.113 L4.4387,44.828 C4.6967,45.002 5.0197,45.046 5.3157,44.949 C7.2777,44.299 9.1767,43.73 11.0287,43.24 C11.1687,48.847 12.2437,53.865 14.1137,57.461 C14.2847,57.792 14.6277,58 15.0007,58 L20.0007,58 C20.3477,58 20.6697,57.82 20.8517,57.524 C21.0337,57.229 21.0497,56.86 20.8937,56.55 C19.7137,54.207 19.0797,50.932 19.0077,46.806 C24.1557,45.754 29.8927,45.755 34.9937,46.804 C34.9217,50.932 34.2877,54.207 33.1077,56.55 C32.9507,56.86 32.9667,57.229 33.1487,57.524 C33.3307,57.82 33.6537,58 34.0007,58 L39.0007,58 C39.3737,58 39.7157,57.792 39.8877,57.461 C41.7577,53.865 42.8327,48.845 42.9727,43.234 C44.8247,43.725 46.7237,44.296 48.6847,44.949 C48.7877,44.983 48.8947,45 49.0007,45 C49.1987,45 49.3947,44.941 49.5617,44.828 L53.5617,42.113 C53.8657,41.907 54.0327,41.549 53.9947,41.184 C53.9577,40.817 53.7217,40.501 53.3817,40.361"/>
            </g>
        </g>
    </g>
</svg>
