<svg xmlns="http://www.w3.org/2000/svg" xmlns:xlink="http://www.w3.org/1999/xlink" viewBox="0 0 24 30" version="1.1"
     x="0px" y="0px">
    <title>travel/vehicle-symbols/trunk-open copy</title>
    <g stroke="none" stroke-width="1" fill="none" fill-rule="evenodd">
        <path d="M15.49625,6.99975 C15.64625,7.00175 15.79225,7.06675 15.88625,7.18775 L17.60025,9.32775 L20.21925,7.58375 C20.29825,7.52775 20.40025,7.50375 20.49625,7.49975 L21.49625,7.49975 C21.77225,7.49975 21.99625,7.72375 21.99625,7.99975 C21.99625,8.26975 21.77525,8.50175 21.49625,8.49975 L20.64825,8.49975 L18.86225,9.68975 L21.06725,10.00475 C21.27725,10.03475 21.44525,10.19375 21.48625,10.40175 L21.98625,12.90175 C22.01225,13.03175 21.98625,13.16675 21.91225,13.27675 L20.91225,14.77675 C20.81925,14.91575 20.66325,14.99975 20.49625,14.99975 L18.94625,14.99975 C18.71425,16.14075 17.70525,16.99975 16.49625,16.99975 C15.28725,16.99975 14.27725,16.13975 14.04625,14.99875 L7.94625,14.99875 C7.71525,16.13975 6.70525,16.99975 5.49625,16.99975 C4.28725,16.99975 3.27825,16.14075 3.04625,14.99975 L1.99625,14.99975 C1.76725,14.99975 1.56725,14.84375 1.51125,14.62075 L1.01125,12.62075 C0.97725,12.48475 1.00225,12.33975 1.08025,12.22275 L2.08025,10.72275 C2.15325,10.61875 2.26125,10.53775 2.38725,10.51175 L6.79125,9.53275 L10.20525,7.09275 C10.29025,7.03275 10.39225,6.99975 10.49625,6.99975 L15.49625,6.99975 Z M5.49625,12.99975 C4.66825,12.99975 3.99625,13.67175 3.99625,14.49975 C3.99625,15.32775 4.66825,15.99975 5.49625,15.99975 C6.32425,15.99975 6.99625,15.32775 6.99625,14.49975 C6.99625,13.67175 6.32425,12.99975 5.49625,12.99975 L5.49625,12.99975 Z M16.49625,12.99975 C15.66825,12.99975 14.99625,13.67175 14.99625,14.49975 C14.99625,15.32775 15.66825,15.99975 16.49625,15.99975 C17.32425,15.99975 17.99625,15.32775 17.99625,14.49975 C17.99625,13.67175 17.32425,12.99975 16.49625,12.99975 L16.49625,12.99975 Z M15.25625,7.99975 L10.65525,7.99975 L7.28725,10.40675 L7.10525,10.48775 L2.80125,11.44375 L2.03625,12.59275 L2.38725,13.99975 L3.04625,14.00075 C3.27725,12.85975 4.28725,11.99975 5.49625,11.99975 C6.70525,11.99975 7.71425,12.85875 7.94625,13.99975 L14.04625,13.99975 C14.27825,12.85875 15.28725,11.99975 16.49625,11.99975 C17.70525,11.99975 18.71525,12.85975 18.94625,14.00075 L20.22825,13.99975 L20.96525,12.89375 L20.57525,10.94375 L17.40725,10.49175 C17.29325,10.47075 17.17825,10.40275 17.10625,10.31175 L15.25625,7.99975 Z"
              fill="#000000"/>
    </g>
</svg>
